<svg width="21" height="21" viewBox="0 0 21 21" fill="none" xmlns="http://www.w3.org/2000/svg">
<path d="M20.2295 3.91009C20.1823 3.91009 20.1116 3.88652 20.0408 3.88652H5.18704L4.95126 2.30683C4.8098 1.26942 3.91386 0.491364 2.85287 0.491364H0.943098C0.424394 0.491364 0 0.915758 0 1.43446C0 1.95317 0.424394 2.37756 0.943098 2.37756H2.85287C2.97076 2.37756 3.06507 2.47187 3.08865 2.58976L4.55045 12.5394C4.73907 13.789 5.82363 14.7321 7.09681 14.7321H16.905C18.1311 14.7321 19.192 13.8598 19.4514 12.6573L20.9839 4.99466C21.0782 4.49953 20.7482 4.0044 20.2295 3.91009Z" fill="#444444"/>
<path d="M9.90251 17.9387C9.85536 16.6419 8.7708 15.6045 7.47404 15.6045C6.10654 15.6752 5.06914 16.8069 5.11629 18.1509C5.16345 19.4476 6.22443 20.485 7.52119 20.485H7.56835C8.91226 20.4143 9.97325 19.2826 9.90251 17.9387Z" fill="#444444"/>
<path d="M15.9147 15.6045C14.5708 15.6045 13.4626 16.6891 13.4626 18.0565C13.4626 19.4005 14.5472 20.5086 15.9147 20.5086C17.2586 20.5086 18.3668 19.424 18.3668 18.0565C18.3432 16.7126 17.2586 15.6045 15.9147 15.6045Z" fill="#444444"/>
</svg>
