<svg width="30" height="29" viewBox="0 0 30 29" fill="none" xmlns="http://www.w3.org/2000/svg">
<path d="M29.2133 21.2831L25.0179 17.236C23.5196 15.7907 20.9724 16.3689 20.373 18.2478C19.9235 19.5487 18.4251 20.2714 17.0766 19.9822C14.0799 19.2595 10.0344 15.5016 9.28518 12.4663C8.83567 11.1654 9.73468 9.72005 11.0832 9.28649C13.0311 8.70835 13.6304 6.25122 12.1321 4.80585L7.93666 0.758819C6.73797 -0.252939 4.93994 -0.252939 3.89109 0.758819L1.04422 3.50502C-1.80266 6.39576 1.34389 14.0562 8.38616 20.8494C15.4284 27.6427 23.3697 30.8225 26.3664 27.9317L29.2133 25.1855C30.2622 24.0293 30.2622 22.2948 29.2133 21.2831Z" fill="#E0922E"/>
</svg>
