<svg width="14" height="14" viewBox="0 0 14 14" fill="none" xmlns="http://www.w3.org/2000/svg">
<g clip-path="url(#clip0)">
<path d="M13.619 10.2746L11.6653 8.32085C10.9675 7.62308 9.78132 7.90222 9.50222 8.80928C9.29289 9.4373 8.59512 9.78618 7.96713 9.6466C6.5716 9.29772 4.68764 7.48353 4.33875 6.01822C4.12943 5.39021 4.54808 4.69244 5.17607 4.48314C6.08317 4.20403 6.36227 3.01783 5.66451 2.32007L3.71077 0.366327C3.15255 -0.122109 2.31524 -0.122109 1.8268 0.366327L0.501048 1.69208C-0.824706 3.08761 0.640601 6.78576 3.9201 10.0653C7.19959 13.3448 10.8977 14.8799 12.2933 13.4843L13.619 12.1586C14.1075 11.6003 14.1075 10.763 13.619 10.2746Z" fill="#444444"/>
</g>
<defs>
<clipPath id="clip0">
<rect width="14" height="14" fill="white"/>
</clipPath>
</defs>
</svg>
